<svg viewBox="0 0 529 101" fill="none"
    xmlns="http://www.w3.org/2000/svg">
    <path d="M370.26 21.217C362.132 21.217 356.327 23.996 353.478 29.2551L351.947 32.0885V22.5905H338.705V80.4616H352.633V46.034C352.633 37.808 357.095 33.0881 364.887 33.0881C372.679 33.0881 376.569 37.6784 376.569 45.692V80.4616H390.497V43.2024C390.497 29.4468 382.93 21.2189 370.262 21.2189L370.26 21.217ZM302.738 21.217C286.311 21.217 276.101 31.4666 276.101 47.9787V56.105C276.101 71.9726 286.399 81.8389 302.969 81.8389C314.048 81.8389 321.816 77.7691 326.704 69.4192L318.067 64.4569C314.455 69.2764 308.692 72.2582 302.969 72.2582C294.58 72.2582 289.567 67.078 289.567 58.3955V56.0957H328.46V46.4906C328.46 31.1134 318.364 21.2189 302.738 21.2189V21.217ZM315.791 46.731H289.567V45.3463C289.567 35.8126 294.243 30.561 302.738 30.561C311.233 30.561 315.791 35.7412 315.791 44.4237V46.731ZM528.749 13.0625V1.9918H480.599V13.0625H497.483V69.3966H480.599V80.4616H528.749V69.3966H511.866V13.0625H528.749ZM163.621 0.387207C142.11 0.387207 128.744 13.8009 128.744 35.3879V47.0617C128.744 68.6544 142.104 82.0625 163.621 82.0625C185.139 82.0625 198.499 68.6544 198.499 47.0617V35.3879C198.494 13.8009 185.127 0.387207 163.621 0.387207ZM184.111 47.8603C184.111 62.1965 176.646 70.4225 163.621 70.4225C150.597 70.4225 143.126 62.1965 143.126 47.8603V34.5894C143.126 20.2531 150.591 12.0272 163.616 12.0272C176.64 12.0272 184.106 20.2531 184.106 34.5894L184.111 47.8603ZM242.226 21.2471C234.921 21.2471 228.588 24.2684 225.296 29.3434L223.793 31.6508V22.5905H210.556V100.375H224.479V72.2056L225.974 74.4171C229.106 79.06 235.225 81.8389 242.337 81.8389C254.344 81.8389 266.456 73.985 266.456 56.4489V46.5958C266.456 33.9693 258.988 21.217 242.219 21.217L242.225 21.2471H242.226ZM252.537 55.7856C252.537 65.1127 247.098 70.9092 238.35 70.9092C230.192 70.9092 224.494 64.7876 224.494 56.0167V47.3229C224.494 38.4168 230.241 32.1994 238.463 32.1994C247.153 32.1994 252.55 37.9959 252.55 47.3229L252.539 55.7856H252.537ZM428.979 2.01999L400.869 80.4616H414.998L420.377 63.6414H452.684L452.736 63.8068L458.057 80.4616H472.202L444.069 1.9918L428.977 2.02187L428.979 2.01999ZM423.853 52.599L436.528 12.884L449.078 52.5501L423.853 52.5971V52.599ZM92.5682 41.3028C94.8294 34.4917 94.0463 27.0361 90.4216 20.845C84.9695 11.3527 74.0129 6.4693 63.3135 8.76348C53.987 -1.61386 38.0195 -2.46314 27.645 6.86576C24.3527 9.82696 21.8962 13.5999 20.5233 17.8105C13.4937 19.2536 7.42749 23.6559 3.87605 29.8921C-1.63423 39.3694 -0.38339 51.3251 6.96928 59.4571C4.70056 66.2645 5.47622 73.7219 9.09715 79.9149C14.5548 89.411 25.519 94.2944 36.2241 91.9964C40.9869 97.3608 47.8269 100.414 54.9992 100.373C65.9672 100.382 75.6843 93.2985 79.0329 82.8516C86.0607 81.4067 92.1269 77.0044 95.6802 70.7701C101.125 61.3097 99.8683 49.4179 92.5682 41.3047V41.3028ZM54.9992 93.8303C50.6214 93.8378 46.3807 92.3027 43.0208 89.4937L43.6124 89.1592L63.5106 77.6677C64.5173 77.0758 65.1389 75.9973 65.1464 74.8286V46.7611L73.5583 51.6294C73.6429 51.6727 73.701 51.7535 73.7161 51.8455V75.1029C73.6935 85.4352 65.3268 93.8058 54.9992 93.8284V93.8303ZM14.7708 76.6436C12.5753 72.852 11.7865 68.4064 12.5453 64.0886L13.1368 64.4437L33.0539 75.9334C34.0568 76.5234 35.302 76.5234 36.3049 75.9334L60.6353 61.9016V71.6194C60.6297 71.7208 60.579 71.8148 60.4982 71.8749L40.3446 83.5036C31.388 88.665 19.9467 85.5967 14.7726 76.6436H14.7708ZM9.531 33.2817C11.7415 29.4637 15.2309 26.5532 19.3814 25.0632V48.7152C19.3664 49.8783 19.9843 50.9587 20.9966 51.5336L45.2088 65.5072L36.7968 70.3755C36.7048 70.4244 36.594 70.4244 36.502 70.3755L16.3878 58.7656C7.45005 53.5835 4.38507 42.1446 9.531 33.1821V33.2817ZM78.6404 49.3447L54.3493 35.232L62.7406 30.3843C62.8326 30.3355 62.9434 30.3355 63.0354 30.3843L83.1496 42.0131C92.1024 47.182 95.1712 58.6341 90.0046 67.5891C87.8298 71.3601 84.4098 74.2537 80.3325 75.7756V52.1236C80.2968 50.9624 79.6527 49.9065 78.6385 49.3447H78.6404ZM87.0129 36.7502L86.4212 36.3951L66.5437 24.8058C65.5333 24.2139 64.2825 24.2139 63.274 24.8058L38.9641 38.8377V29.1198C38.9548 29.0202 38.9999 28.9207 39.0825 28.8643L59.1967 17.2544C68.1626 12.0873 79.6189 15.1687 84.7836 24.1388C86.9659 27.9267 87.7547 32.3591 87.0147 36.6675V36.7464L87.0129 36.7502ZM34.3741 53.9762L25.9622 49.1286C25.8777 49.0778 25.8195 48.9895 25.8045 48.8918V25.6927C25.8177 15.3397 34.2183 6.9597 44.5646 6.97285C48.9312 6.97849 53.1606 8.50983 56.5186 11.3038L55.927 11.6383L36.0287 23.1298C35.0221 23.7216 34.4005 24.8002 34.3929 25.9688L34.3741 53.9762ZM38.9435 44.1212L49.7781 37.8738L60.6335 44.1212V56.6161L49.8176 62.8655L38.9641 56.6161L38.9454 44.1212H38.9435Z" fill="white"/>
</svg>
