<svg width="2710" height="319" viewBox="0 0 2710 319" fill="none" xmlns="http://www.w3.org/2000/svg">
<path d="M350.657 314H293.037V187.58C293.037 169.806 289.883 156.763 283.577 148.45C277.557 139.85 269.1 135.55 258.207 135.55C247.027 135.55 236.277 139.993 225.957 148.88C215.923 157.48 208.757 168.803 204.457 182.85V314H146.837V187.58C146.837 169.52 143.683 156.333 137.377 148.02C131.357 139.706 122.9 135.55 112.007 135.55C100.827 135.55 90.0767 139.85 79.7567 148.45C69.7234 157.05 62.5567 168.373 58.2567 182.42V314H0.636719V88.6796H52.6667V130.39C61.2667 115.77 72.7334 104.59 87.0667 96.8496C101.4 88.8229 117.883 84.8096 136.517 84.8096C155.15 84.8096 169.627 89.3963 179.947 98.5696C190.553 107.743 197.29 119.066 200.157 132.54C209.33 117.06 220.94 105.306 234.987 97.2796C249.32 88.9663 265.373 84.8096 283.147 84.8096C297.193 84.8096 308.517 87.3896 317.117 92.5496C326.003 97.4229 332.883 104.16 337.757 112.76C342.63 121.073 345.927 130.533 347.647 141.14C349.653 151.746 350.657 162.496 350.657 173.39V314Z" fill="white"/>
<path d="M385.342 247.35C385.342 232.73 389.356 219.973 397.382 209.08C405.696 197.9 417.162 189.3 431.782 183.28C446.402 177.26 463.172 174.25 482.092 174.25C491.552 174.25 501.156 174.966 510.902 176.4C520.649 177.833 529.106 180.126 536.272 183.28V171.24C536.272 156.906 531.972 145.87 523.372 138.13C515.059 130.39 502.589 126.52 485.962 126.52C473.636 126.52 461.882 128.67 450.702 132.97C439.522 137.27 427.769 143.576 415.442 151.89L396.952 114.05C411.859 104.303 427.052 96.9929 442.532 92.1196C458.299 87.2463 474.782 84.8096 491.982 84.8096C524.089 84.8096 549.029 92.8363 566.802 108.89C584.862 124.943 593.892 147.876 593.892 177.69V249.5C593.892 255.52 594.896 259.82 596.902 262.4C599.196 264.98 602.779 266.556 607.652 267.13V314C602.492 314.86 597.762 315.576 593.462 316.15C589.449 316.723 586.009 317.01 583.142 317.01C571.676 317.01 562.932 314.43 556.912 309.27C551.179 304.11 547.596 297.803 546.162 290.35L544.872 278.74C535.126 291.353 522.942 301.1 508.322 307.98C493.702 314.86 478.796 318.3 463.602 318.3C448.696 318.3 435.222 315.29 423.182 309.27C411.429 302.963 402.112 294.506 395.232 283.9C388.639 273.006 385.342 260.823 385.342 247.35ZM525.522 258.96C528.676 255.52 531.256 252.08 533.262 248.64C535.269 245.2 536.272 242.046 536.272 239.18V216.39C529.392 213.523 521.939 211.373 513.912 209.94C505.886 208.22 498.289 207.36 491.122 207.36C476.216 207.36 463.889 210.656 454.142 217.25C444.682 223.556 439.952 232.013 439.952 242.62C439.952 248.353 441.529 253.8 444.682 258.96C447.836 264.12 452.422 268.276 458.442 271.43C464.462 274.583 471.629 276.16 479.942 276.16C488.542 276.16 496.999 274.583 505.312 271.43C513.626 267.99 520.362 263.833 525.522 258.96Z" fill="white"/>
<path d="M647.736 314V88.6796H705.356V314H647.736ZM647.736 57.2896V0.0996094H705.356V57.2896H647.736Z" fill="white"/>
<path d="M966.746 314H909.126V187.58C909.126 169.52 905.973 156.333 899.666 148.02C893.359 139.706 884.616 135.55 873.436 135.55C865.696 135.55 857.813 137.556 849.786 141.57C842.046 145.583 835.023 151.173 828.716 158.34C822.409 165.22 817.823 173.246 814.956 182.42V314H757.336V88.6796H809.366V130.39C815.099 120.643 822.409 112.473 831.296 105.88C840.183 98.9996 850.359 93.8396 861.826 90.3996C873.579 86.6729 885.906 84.8096 898.806 84.8096C912.853 84.8096 924.319 87.3896 933.206 92.5496C942.379 97.4229 949.259 104.16 953.846 112.76C958.719 121.073 962.016 130.533 963.736 141.14C965.743 151.746 966.746 162.496 966.746 173.39V314Z" fill="white"/>
<path d="M1327.94 318.3C1309.88 318.3 1293.54 315.29 1278.92 309.27C1264.3 302.963 1251.83 294.506 1241.51 283.9C1231.19 273.006 1223.16 260.68 1217.43 246.92C1211.98 232.873 1209.26 218.11 1209.26 202.63C1209.26 181.13 1213.99 161.493 1223.45 143.72C1233.2 125.946 1246.96 111.756 1264.73 101.15C1282.79 90.2563 1304 84.8096 1328.37 84.8096C1353.02 84.8096 1374.09 90.2563 1391.58 101.15C1409.07 111.756 1422.4 125.946 1431.57 143.72C1441.03 161.206 1445.76 180.126 1445.76 200.48C1445.76 203.92 1445.62 207.503 1445.33 211.23C1445.04 214.67 1444.76 217.536 1444.47 219.83H1270.32C1271.47 231.296 1274.76 241.33 1280.21 249.93C1285.94 258.53 1293.11 265.123 1301.71 269.71C1310.6 274.01 1320.06 276.16 1330.09 276.16C1341.56 276.16 1352.31 273.436 1362.34 267.99C1372.66 262.256 1379.68 254.803 1383.41 245.63L1432.86 259.39C1427.41 270.856 1419.53 281.033 1409.21 289.92C1399.18 298.806 1387.28 305.83 1373.52 310.99C1359.76 315.863 1344.57 318.3 1327.94 318.3ZM1269.03 183.28H1386.85C1385.7 171.813 1382.41 161.923 1376.96 153.61C1371.8 145.01 1364.92 138.416 1356.32 133.83C1347.72 128.956 1338.12 126.52 1327.51 126.52C1317.19 126.52 1307.73 128.956 1299.13 133.83C1290.82 138.416 1283.94 145.01 1278.49 153.61C1273.33 161.923 1270.18 171.813 1269.03 183.28Z" fill="white"/>
<path d="M1690.27 314H1632.65V187.58C1632.65 169.52 1629.5 156.333 1623.19 148.02C1616.88 139.706 1608.14 135.55 1596.96 135.55C1589.22 135.55 1581.34 137.556 1573.31 141.57C1565.57 145.583 1558.55 151.173 1552.24 158.34C1545.93 165.22 1541.35 173.246 1538.48 182.42V314H1480.86V88.6796H1532.89V130.39C1538.62 120.643 1545.93 112.473 1554.82 105.88C1563.71 98.9996 1573.88 93.8396 1585.35 90.3996C1597.1 86.6729 1609.43 84.8096 1622.33 84.8096C1636.38 84.8096 1647.84 87.3896 1656.73 92.5496C1665.9 97.4229 1672.78 104.16 1677.37 112.76C1682.24 121.073 1685.54 130.533 1687.26 141.14C1689.27 151.746 1690.27 162.496 1690.27 173.39V314Z" fill="white"/>
<path d="M1724.89 247.35C1724.89 232.73 1728.91 219.973 1736.93 209.08C1745.25 197.9 1756.71 189.3 1771.33 183.28C1785.95 177.26 1802.72 174.25 1821.64 174.25C1831.1 174.25 1840.71 174.966 1850.45 176.4C1860.2 177.833 1868.66 180.126 1875.82 183.28V171.24C1875.82 156.906 1871.52 145.87 1862.92 138.13C1854.61 130.39 1842.14 126.52 1825.51 126.52C1813.19 126.52 1801.43 128.67 1790.25 132.97C1779.07 137.27 1767.32 143.576 1754.99 151.89L1736.5 114.05C1751.41 104.303 1766.6 96.9929 1782.08 92.1196C1797.85 87.2463 1814.33 84.8096 1831.53 84.8096C1863.64 84.8096 1888.58 92.8363 1906.35 108.89C1924.41 124.943 1933.44 147.876 1933.44 177.69V249.5C1933.44 255.52 1934.45 259.82 1936.45 262.4C1938.75 264.98 1942.33 266.556 1947.2 267.13V314C1942.04 314.86 1937.31 315.576 1933.01 316.15C1929 316.723 1925.56 317.01 1922.69 317.01C1911.23 317.01 1902.48 314.43 1896.46 309.27C1890.73 304.11 1887.15 297.803 1885.71 290.35L1884.42 278.74C1874.68 291.353 1862.49 301.1 1847.87 307.98C1833.25 314.86 1818.35 318.3 1803.15 318.3C1788.25 318.3 1774.77 315.29 1762.73 309.27C1750.98 302.963 1741.66 294.506 1734.78 283.9C1728.19 273.006 1724.89 260.823 1724.89 247.35ZM1865.07 258.96C1868.23 255.52 1870.81 252.08 1872.81 248.64C1874.82 245.2 1875.82 242.046 1875.82 239.18V216.39C1868.94 213.523 1861.49 211.373 1853.46 209.94C1845.44 208.22 1837.84 207.36 1830.67 207.36C1815.77 207.36 1803.44 210.656 1793.69 217.25C1784.23 223.556 1779.5 232.013 1779.5 242.62C1779.5 248.353 1781.08 253.8 1784.23 258.96C1787.39 264.12 1791.97 268.276 1797.99 271.43C1804.01 274.583 1811.18 276.16 1819.49 276.16C1828.09 276.16 1836.55 274.583 1844.86 271.43C1853.18 267.99 1859.91 263.833 1865.07 258.96Z" fill="white"/>
<path d="M2196.7 314H2139.08V187.58C2139.08 169.52 2135.92 156.333 2129.62 148.02C2123.31 139.706 2114.57 135.55 2103.39 135.55C2095.65 135.55 2087.76 137.556 2079.74 141.57C2072 145.583 2064.97 151.173 2058.67 158.34C2052.36 165.22 2047.77 173.246 2044.91 182.42V314H1987.29V88.6796H2039.32V130.39C2045.05 120.643 2052.36 112.473 2061.25 105.88C2070.13 98.9996 2080.31 93.8396 2091.78 90.3996C2103.53 86.6729 2115.86 84.8096 2128.76 84.8096C2142.8 84.8096 2154.27 87.3896 2163.16 92.5496C2172.33 97.4229 2179.21 104.16 2183.8 112.76C2188.67 121.073 2191.97 130.533 2193.69 141.14C2195.69 151.746 2196.7 162.496 2196.7 173.39V314Z" fill="white"/>
<path d="M2351.72 318.3C2333.37 318.3 2316.89 315.29 2302.27 309.27C2287.65 302.963 2275.18 294.363 2264.86 283.47C2254.54 272.29 2246.51 259.676 2240.78 245.63C2235.33 231.583 2232.61 216.82 2232.61 201.34C2232.61 180.126 2237.34 160.776 2246.8 143.29C2256.55 125.516 2270.31 111.326 2288.08 100.72C2305.85 90.1129 2326.92 84.8096 2351.29 84.8096C2375.66 84.8096 2396.58 90.1129 2414.07 100.72C2431.56 111.326 2444.6 125.23 2453.2 142.43L2396.87 159.63C2392 151.316 2385.55 145.01 2377.52 140.71C2369.49 136.123 2360.61 133.83 2350.86 133.83C2339.97 133.83 2329.93 136.696 2320.76 142.43C2311.87 147.876 2304.85 155.76 2299.69 166.08C2294.53 176.113 2291.95 187.866 2291.95 201.34C2291.95 214.526 2294.53 226.28 2299.69 236.6C2305.14 246.633 2312.3 254.66 2321.19 260.68C2330.08 266.413 2339.97 269.28 2350.86 269.28C2357.74 269.28 2364.19 268.133 2370.21 265.84C2376.52 263.546 2382.11 260.393 2386.98 256.38C2391.85 252.366 2395.44 247.78 2397.73 242.62L2454.06 259.82C2448.9 271 2441.3 281.033 2431.27 289.92C2421.52 298.806 2409.91 305.83 2396.44 310.99C2383.25 315.863 2368.35 318.3 2351.72 318.3Z" fill="white"/>
<path d="M2591.9 318.3C2573.84 318.3 2557.5 315.29 2542.88 309.27C2528.26 302.963 2515.79 294.506 2505.47 283.9C2495.15 273.006 2487.13 260.68 2481.39 246.92C2475.95 232.873 2473.22 218.11 2473.22 202.63C2473.22 181.13 2477.95 161.493 2487.41 143.72C2497.16 125.946 2510.92 111.756 2528.69 101.15C2546.75 90.2563 2567.97 84.8096 2592.33 84.8096C2616.99 84.8096 2638.06 90.2563 2655.54 101.15C2673.03 111.756 2686.36 125.946 2695.53 143.72C2704.99 161.206 2709.72 180.126 2709.72 200.48C2709.72 203.92 2709.58 207.503 2709.29 211.23C2709.01 214.67 2708.72 217.536 2708.43 219.83H2534.28C2535.43 231.296 2538.73 241.33 2544.17 249.93C2549.91 258.53 2557.07 265.123 2565.67 269.71C2574.56 274.01 2584.02 276.16 2594.05 276.16C2605.52 276.16 2616.27 273.436 2626.3 267.99C2636.62 262.256 2643.65 254.803 2647.37 245.63L2696.82 259.39C2691.38 270.856 2683.49 281.033 2673.17 289.92C2663.14 298.806 2651.24 305.83 2637.48 310.99C2623.72 315.863 2608.53 318.3 2591.9 318.3ZM2532.99 183.28H2650.81C2649.67 171.813 2646.37 161.923 2640.92 153.61C2635.76 145.01 2628.88 138.416 2620.28 133.83C2611.68 128.956 2602.08 126.52 2591.47 126.52C2581.15 126.52 2571.69 128.956 2563.09 133.83C2554.78 138.416 2547.9 145.01 2542.45 153.61C2537.29 161.923 2534.14 171.813 2532.99 183.28Z" fill="white"/>
<path d="M1214.24 253.939C1211.24 258.276 1207.56 263.4 1203.2 269.311C1198.83 275.222 1193.68 280.964 1187.73 286.538C1182.17 292.196 1176.03 297.211 1169.3 301.582C1160.4 307.359 1151.21 311.105 1141.73 312.819C1132.25 314.534 1123.03 313.509 1114.1 309.743C1105.24 305.582 1097.22 297.971 1090.04 286.912L1019.55 178.363L994.663 194.522L970.541 157.377L995.425 141.218L955.611 79.9112L1003.94 48.5291L1043.75 109.836L1083.42 84.0745L1107.54 121.219L1067.87 146.981L1127.82 239.301C1132.28 245.637 1137.13 249.154 1142.37 249.853C1147.61 250.552 1152.75 249.263 1157.8 245.984C1162.85 242.705 1167.23 238.663 1170.95 233.857C1174.66 229.052 1177.57 225.111 1179.68 222.036L1214.24 253.939Z" fill="white"/>
</svg>
